<svg xmlns="http://www.w3.org/2000/svg" viewBox="0 0 740 665.85"><defs><style>.cls-1,.cls-10,.cls-11,.cls-13,.cls-14,.cls-15,.cls-16,.cls-17,.cls-18,.cls-2,.cls-3,.cls-38,.cls-4,.cls-5,.cls-6,.cls-61,.cls-7,.cls-8,.cls-9{fill:none;stroke-miterlimit:10;}.cls-1,.cls-18,.cls-4{stroke:#000;}.cls-1,.cls-10,.cls-11,.cls-2,.cls-3,.cls-38,.cls-4,.cls-5,.cls-6,.cls-7,.cls-8,.cls-9{stroke-linecap:round;}.cls-1,.cls-10,.cls-11,.cls-13,.cls-14,.cls-15,.cls-16,.cls-17,.cls-2,.cls-3,.cls-38,.cls-5,.cls-6,.cls-7,.cls-8,.cls-9{stroke-width:4px;}.cls-13,.cls-2{stroke:#007d00;}.cls-3{stroke:#006700;}.cls-18,.cls-4,.cls-61{stroke-width:2px;}.cls-5{stroke:#009a00;}.cls-6{stroke:#7e0086;}.cls-7{stroke:#0000ab;}.cls-61,.cls-8{stroke:#874200;}.cls-9{stroke:#8a0000;}.cls-10{stroke:#4a6e87;}.cls-11{stroke:#a7a400;}.cls-12,.cls-39,.cls-40,.cls-42,.cls-43,.cls-44,.cls-45,.cls-46,.cls-47,.cls-50,.cls-52,.cls-53,.cls-54,.cls-58,.cls-59,.cls-60{font-size:12px;}.cls-12,.cls-20,.cls-25,.cls-40,.cls-42,.cls-43,.cls-44,.cls-45,.cls-46,.cls-47,.cls-50,.cls-52,.cls-53,.cls-54,.cls-58,.cls-59,.cls-60{font-family:MyriadPro-Regular, Myriad Pro;}.cls-14{stroke:#005900;}.cls-15{stroke:#750000;}.cls-16{stroke:#7e7c00;}.cls-17{stroke:#680084;}.cls-19{letter-spacing:-0.09em;}.cls-20,.cls-25{font-size:21px;}.cls-20,.cls-33{letter-spacing:-0.01em;}.cls-21{letter-spacing:-0.02em;}.cls-22{letter-spacing:0em;}.cls-23{letter-spacing:0em;}.cls-24{letter-spacing:0em;}.cls-26{letter-spacing:0.03em;}.cls-27{letter-spacing:-0.03em;}.cls-28{letter-spacing:-0.01em;}.cls-29{letter-spacing:-0.01em;}.cls-30{letter-spacing:0.01em;}.cls-31{letter-spacing:0.03em;}.cls-32{letter-spacing:-0.03em;}.cls-34{letter-spacing:-0.01em;}.cls-35{letter-spacing:-0.01em;}.cls-36{font-size:36px;font-family:Montserrat-Italic, Montserrat;font-style:italic;}.cls-37{letter-spacing:-0.02em;}.cls-38{stroke:#231f20;}.cls-39{font-family:Montserrat-Regular, Montserrat;}.cls-40{fill:#680084;}.cls-41{letter-spacing:-0.01em;}.cls-42{fill:#7e7c00;}.cls-43{fill:#750000;}.cls-44{fill:#005900;}.cls-45{fill:#4a6e87;}.cls-46{fill:#a7a400;}.cls-47{fill:#007d00;}.cls-48{letter-spacing:0em;}.cls-49{letter-spacing:0em;}.cls-50{fill:#7e0086;}.cls-51{letter-spacing:0em;}.cls-52{fill:#009a00;}.cls-53{fill:#0000ab;}.cls-54{fill:#874200;}.cls-55{letter-spacing:-0.02em;}.cls-56{letter-spacing:-0.01em;}.cls-57{letter-spacing:0em;}.cls-58{fill:#8a0000;}.cls-59{fill:#006700;}.cls-60{fill:#009000;}.cls-62{letter-spacing:0em;}</style></defs><title>Datapath</title><g id="Layer_2" data-name="Layer 2"><line class="cls-1" x1="279" y1="579.6" x2="369" y2="579.6"/><line class="cls-2" x1="288" y1="552.6" x2="270" y2="561.6"/><line class="cls-1" x1="369" y1="183.6" x2="369" y2="156.6"/><polyline class="cls-2" points="234 183.6 234 156.6 369 156.6 369 183.6 369 579.6 279 579.6 279 543.6"/><polyline class="cls-3" points="279 255.6 279 291.6 306 291.6 306 327.6"/><polyline class="cls-4" points="252 309.6 234 309.6 243 309.6 243 327.6"/><line class="cls-5" x1="279" y1="453.6" x2="279" y2="372.6"/><line class="cls-6" x1="621" y1="372.6" x2="621" y2="453.6"/><line class="cls-7" x1="639" y1="615.6" x2="603" y2="624.6"/><line class="cls-7" x1="639" y1="552.6" x2="603" y2="561.6"/><polyline class="cls-7" points="666 192.6 666 165.6 711 165.6 711 570.6 621 570.6 621 543.6 621 642.6"/><line class="cls-7" x1="711" y1="165.6" x2="666" y2="165.6"/><line class="cls-7" x1="675" y1="174.6" x2="657" y2="183.6"/><polyline class="cls-8" points="468 165.6 468 147.6 729 147.6 729 300.6 648 300.6 648 327.6 648 300.6 621 300.6 621 264.6"/><line class="cls-9" x1="414" y1="165.6" x2="414" y2="84.6"/><line class="cls-9" x1="432" y1="102.6" x2="396" y2="111.6"/><polyline class="cls-10" points="99 435.6 153 435.6 153 588.6 432 588.6 432 282.6"/><line class="cls-11" x1="180" y1="471.6" x2="171" y2="471.6"/><polyline class="cls-11" points="522 471.6 450 471.6 450 597.6 171 597.6 171 579.6 99 579.6 171 579.6 171 471.6"/><text class="cls-12" transform="translate(207 498.6)">ld</text><text class="cls-12" transform="translate(207 525.6)">clr</text><text class="cls-12" transform="translate(549 498.6)">ld</text><text class="cls-12" transform="translate(549 525.6)">clr</text><line class="cls-13" x1="252" y1="165.6" x2="216" y2="174.6"/><polyline class="cls-13" points="576 192.6 576 165.6 513 165.6 513 318.6 369 318.6"/><line class="cls-13" x1="594" y1="174.6" x2="558" y2="183.6"/><line class="cls-14" x1="225" y1="345.6" x2="99" y2="345.6"/><polyline class="cls-15" points="567 345.6 450 345.6 450 399.6 198 399.6 198 291.6 99 291.6"/><polyline class="cls-16" points="99 237.6 171 237.6 171 435.6 162 435.6 162 498.6 180 498.6"/><polyline class="cls-17" points="522 498.6 378 498.6 378 417.6 180 417.6 180 237.6 180 183.6 99 183.6"/><polyline class="cls-18" points="567 309.6 603 309.6 585 309.6 585 327.6"/><text class="cls-12" transform="translate(222 307.6)">“000011<tspan class="cls-19" x="41.18" y="0">”</tspan></text><text class="cls-12" transform="translate(562 308.6)">“001010<tspan class="cls-19" x="41.18" y="0">”</tspan></text><line class="cls-8" x1="639" y1="273.6" x2="603" y2="282.6"/><line class="cls-8" x1="666" y1="309.6" x2="630" y2="318.6"/><line class="cls-5" x1="297" y1="381.6" x2="261" y2="390.6"/><line class="cls-3" x1="297" y1="264.6" x2="261" y2="273.6"/><text class="cls-20" transform="translate(576 507.6)">Y<tspan class="cls-21" x="11.21" y="0">P</tspan><tspan class="cls-22" x="21.86" y="0">os</tspan><tspan class="cls-23" x="41.71" y="0">R</tspan><tspan class="cls-24" x="53.09" y="0">eg</tspan></text><text class="cls-25" transform="translate(225 507.6)"><tspan class="cls-26">Y</tspan><tspan class="cls-27" x="11.97" y="0">V</tspan><tspan x="22.99" y="0">el</tspan><tspan class="cls-23" x="38.47" y="0">R</tspan><tspan x="49.85" y="0">eg</tspan></text><text class="cls-25" transform="translate(81 570.6)">clk</text><text class="cls-25" transform="translate(9 426.6)">bel<tspan class="cls-28" x="27.43" y="0">o</tspan><tspan class="cls-24" x="38.81" y="0">w_</tspan><tspan class="cls-29" x="64.76" y="0">g</tspan><tspan class="cls-22" x="76.38" y="0">nd</tspan></text><text class="cls-25" transform="translate(0 336.6)"><tspan class="cls-30">S</tspan><tspan class="cls-24" x="10.48" y="0">el_</tspan><tspan class="cls-27" x="36.46" y="0">V</tspan><tspan x="47.48" y="0">elJump</tspan></text><text class="cls-25" transform="translate(9 282.6)"><tspan class="cls-30">S</tspan><tspan class="cls-24" x="10.48" y="0">el_</tspan><tspan class="cls-21" x="36.46" y="0">P</tspan><tspan x="47.1" y="0">os</tspan><tspan class="cls-23" x="66.95" y="0">R</tspan><tspan x="78.33" y="0">eg</tspan></text><text class="cls-25" transform="translate(45 228.6)">ld_<tspan class="cls-31" x="27.3" y="0">Y</tspan><tspan class="cls-32" x="39.27" y="0">V</tspan><tspan x="50.29" y="0">el</tspan></text><text class="cls-25" transform="translate(45 174.6)">ld_<tspan class="cls-33" x="27.3" y="0">Y</tspan><tspan class="cls-21" x="38.51" y="0">P</tspan><tspan x="49.16" y="0">os</tspan></text><text class="cls-25" transform="translate(351 75.6)"><tspan class="cls-29">g</tspan><tspan class="cls-34" x="11.61" y="0">r</tspan><tspan x="18.27" y="0">ound_le</tspan><tspan class="cls-35" x="90.85" y="0">v</tspan><tspan x="100.74" y="0">el</tspan></text><text class="cls-20" transform="translate(603 660.6)">Y<tspan class="cls-21" x="11.21" y="0">P</tspan><tspan class="cls-22" x="21.86" y="0">os</tspan></text><text class="cls-36" transform="translate(9 30.6)">Da<tspan class="cls-37" x="54.14" y="0">t</tspan><tspan x="68.08" y="0">apath:</tspan></text><line class="cls-6" x1="639" y1="390.6" x2="603" y2="399.6"/><line class="cls-18" x1="324" y1="183.6" x2="324" y2="174.6"/><line class="cls-18" x1="297" y1="174.6" x2="351" y2="174.6"/><text class="cls-12" transform="translate(301 172.6)">“000001<tspan class="cls-19" x="41.18" y="0">”</tspan></text></g><g id="Layer_1" data-name="Layer 1"><line class="cls-38" x1="180" y1="453.6" x2="180" y2="543.6"/><line class="cls-38" x1="342" y1="543.6" x2="180" y2="543.6"/><line class="cls-38" x1="342" y1="453.6" x2="180" y2="453.6"/><line class="cls-38" x1="342" y1="543.6" x2="342" y2="453.6"/><line class="cls-38" x1="180" y1="462.6" x2="207" y2="471.6"/><line class="cls-38" x1="180" y1="480.6" x2="207" y2="471.6"/><line class="cls-38" x1="180" y1="498.6" x2="207" y2="498.6"/><line class="cls-38" x1="180" y1="525.6" x2="207" y2="525.6"/><line class="cls-38" x1="522" y1="453.6" x2="522" y2="543.6"/><line class="cls-38" x1="684" y1="543.6" x2="522" y2="543.6"/><line class="cls-38" x1="684" y1="453.6" x2="522" y2="453.6"/><line class="cls-38" x1="684" y1="543.6" x2="684" y2="453.6"/><line class="cls-38" x1="522" y1="462.6" x2="549" y2="471.6"/><line class="cls-38" x1="522" y1="480.6" x2="549" y2="471.6"/><line class="cls-38" x1="522" y1="498.6" x2="549" y2="498.6"/><line class="cls-38" x1="522" y1="525.6" x2="549" y2="525.6"/><line class="cls-38" x1="216" y1="327.6" x2="342" y2="327.6"/><line class="cls-38" x1="235.89" y1="372.6" x2="322.11" y2="372.6"/><line class="cls-38" x1="342" y1="327.6" x2="322.11" y2="372.6"/><line class="cls-38" x1="235.89" y1="372.6" x2="216" y2="327.6"/><text class="cls-39" transform="translate(243 354.6)"><tspan xml:space="preserve">1                  0</tspan></text><line class="cls-38" x1="558" y1="327.6" x2="684" y2="327.6"/><line class="cls-38" x1="577.89" y1="372.6" x2="664.11" y2="372.6"/><line class="cls-38" x1="684" y1="327.6" x2="664.11" y2="372.6"/><line class="cls-38" x1="577.89" y1="372.6" x2="558" y2="327.6"/><text class="cls-39" transform="translate(585 354.6)"><tspan xml:space="preserve">0                  1</tspan></text><line class="cls-38" x1="540" y1="192.6" x2="567" y2="264.6"/><line class="cls-38" x1="702" y1="192.6" x2="675" y2="264.6"/><line class="cls-38" x1="567" y1="264.6" x2="675" y2="264.6"/><line class="cls-38" x1="540" y1="192.6" x2="594" y2="192.6"/><line class="cls-38" x1="702" y1="192.6" x2="648" y2="192.6"/><line class="cls-38" x1="594" y1="192.6" x2="612" y2="192.6"/><line class="cls-38" x1="648" y1="192.6" x2="630" y2="192.6"/><line class="cls-38" x1="612" y1="192.6" x2="621" y2="219.6"/><line class="cls-38" x1="630" y1="192.6" x2="621" y2="219.6"/><line class="cls-38" x1="621" y1="228.6" x2="621" y2="246.6"/><line class="cls-38" x1="630" y1="237.6" x2="612" y2="237.6"/><line class="cls-38" x1="387" y1="282.6" x2="387" y2="165.6"/><line class="cls-38" x1="495" y1="165.6" x2="387" y2="165.6"/><line class="cls-38" x1="495" y1="282.6" x2="495" y2="165.6"/><line class="cls-38" x1="387" y1="282.6" x2="495" y2="282.6"/><line class="cls-38" x1="414" y1="237.6" x2="468" y2="210.6"/><line class="cls-38" x1="414" y1="192.6" x2="468" y2="210.6"/><line class="cls-38" x1="414" y1="246.6" x2="468" y2="246.6"/><line class="cls-38" x1="198" y1="183.6" x2="225" y2="255.6"/><line class="cls-38" x1="360" y1="183.6" x2="333" y2="255.6"/><line class="cls-38" x1="225" y1="255.6" x2="333" y2="255.6"/><line class="cls-38" x1="198" y1="183.6" x2="252" y2="183.6"/><line class="cls-38" x1="360" y1="183.6" x2="306" y2="183.6"/><line class="cls-38" x1="252" y1="183.6" x2="270" y2="183.6"/><line class="cls-38" x1="306" y1="183.6" x2="288" y2="183.6"/><line class="cls-38" x1="270" y1="183.6" x2="279" y2="210.6"/><line class="cls-38" x1="288" y1="183.6" x2="279" y2="210.6"/><line class="cls-38" x1="288" y1="228.6" x2="270" y2="228.6"/><line class="cls-38" x1="144" y1="138.6" x2="144" y2="606.6"/><line class="cls-38" x1="738" y1="606.6" x2="144" y2="606.6"/><line class="cls-38" x1="144" y1="138.6" x2="738" y2="138.6"/><line class="cls-38" x1="738" y1="606.6" x2="738" y2="138.6"/></g><g id="Layer_3" data-name="Layer 3"><text class="cls-40" transform="translate(162 179.6)">w<tspan class="cls-41" x="8.83" y="0">Y</tspan><tspan x="15.22" y="0">ld</tspan></text><text class="cls-42" transform="translate(149 233.6)">wldV</text><text class="cls-43" transform="translate(189 287.6)">selP</text><text class="cls-44" transform="translate(148 341.6)">selV</text><text class="cls-45" transform="translate(435 434.6)">wBG</text><text class="cls-46" transform="translate(175 562.6)">wClk</text><text class="cls-47" transform="translate(372 552.6)">wV<tspan class="cls-48" x="15.53" y="0">R</tspan><tspan class="cls-49" x="22.03" y="0">egO</tspan></text><text class="cls-50" transform="translate(623 420.6)">w<tspan class="cls-51" x="8.83" y="0">M</tspan><tspan x="18.52" y="0">uxP</tspan></text><text class="cls-52" transform="translate(283 435.6)">w<tspan class="cls-51" x="8.83" y="0">M</tspan><tspan x="18.52" y="0">uxV</tspan></text><text class="cls-53" transform="translate(630 588.6)">wP<tspan class="cls-48" x="15.22" y="0">R</tspan><tspan x="21.72" y="0">egO</tspan></text><text class="cls-54" transform="translate(643 297.6)">w<tspan class="cls-55" x="8.83" y="0">P</tspan><tspan x="14.92" y="0">os</tspan><tspan class="cls-56" x="26.26" y="0">A</tspan><tspan class="cls-57" x="33.46" y="0">d</tspan></text><text class="cls-58" transform="translate(414 156.6)">wGnL</text><text class="cls-58" transform="translate(432 111.6)">6</text><text class="cls-47" transform="translate(252 174.6)">6</text><text class="cls-59" transform="translate(306 273.6)">6</text><text class="cls-60" transform="translate(297 390.6)">6</text><text class="cls-47" transform="translate(288 561.6)">6</text><text class="cls-53" transform="translate(638.82 561.6) scale(0.88 1)">6</text><text class="cls-50" transform="translate(639 399.6)">6</text><text class="cls-47" transform="translate(594 174.6)">6</text><text class="cls-53" transform="translate(675 183.6)">6</text><text class="cls-54" transform="translate(666 318.6)">6</text><text class="cls-54" transform="translate(594 282.6)">6</text><text class="cls-53" transform="translate(639 624.6)">6</text><line class="cls-61" x1="450" y1="147.6" x2="486" y2="156.6"/><text class="cls-54" transform="translate(486 160.6)">6</text><text class="cls-59" transform="translate(308 290.6)">wV<tspan class="cls-62" x="15.53" y="0">D</tspan><tspan x="23.57" y="0">ec</tspan></text><text class="cls-43" transform="translate(453 366.6)">selP</text><text class="cls-47" transform="translate(516 287.6)">wV<tspan class="cls-48" x="15.53" y="0">R</tspan><tspan class="cls-49" x="22.03" y="0">egO</tspan></text><text class="cls-46" transform="translate(453 544.6)">wClk</text><text class="cls-40" transform="translate(382 493.6)">w<tspan class="cls-41" x="8.83" y="0">Y</tspan><tspan x="15.22" y="0">ld</tspan></text><text class="cls-53" transform="translate(716.21 346.83) rotate(88.34)">wP<tspan class="cls-48" x="15.22" y="0">R</tspan><tspan x="21.72" y="0">egO</tspan></text></g></svg>